# xmcd CD database file
#
# Track frame offsets:
#	150
#	24324
#	40853
#	65737
#	89381
#	111285
#	127121
#	160971
#	185411
#	227186
#	250614
#	283165
#
# Disc length: 4081 seconds
#
# Revision: 1
# Processed by: cddbd v1.4PL0 Copyright (c) Steve Scherf et al.
# Submitted via: Feurio! 1.64 - http://www.feurio.com
#
DISCID=a80fef0c
DTITLE=Wolfe - Delaware Crossing
DYEAR=1900
DGENRE=Acoustic
TTITLE0=Stranger blues
TTITLE1=No returns,no exchanges
TTITLE2=See what love can do
TTITLE3=Tumblin down
TTITLE4=One last love
TTITLE5=Thing get better
TTITLE6=black hearted woman
TTITLE7=beg forgiveness
TTITLE8=love gone bad
TTITLE9=crowded in my soul
TTITLE10=wolfe jam
TTITLE11=gates of heaven
EXTD=
EXTT0=
EXTT1=
EXTT2=
EXTT3=
EXTT4=
EXTT5=
EXTT6=
EXTT7=
EXTT8=
EXTT9=
EXTT10=
EXTT11=
PLAYORDER=
